/* XPM */
static char *_d1d110df7fb4eabddcac6b6b34b63bdlHubpCc4QxapONpE[] = {
/* columns rows colors chars-per-pixel */
"64 64 89 1 ",
"  c black",
". c gray2",
"X c gray5",
"o c #0C1409",
"O c #111107",
"+ c #121609",
"@ c #14140C",
"# c #082E00",
"$ c #152E09",
"% c #173B0F",
"& c #173010",
"* c gray14",
"= c #265E19",
"- c #1B630B",
"; c #5B0C5A",
": c #5F165D",
"> c #641264",
", c #770977",
"< c #7B0C7B",
"1 c #791377",
"2 c #970F0B",
"3 c #9B190E",
"4 c #A01515",
"5 c #9C2B0C",
"6 c #97380B",
"7 c #A03E15",
"8 c #C80D0C",
"9 c #C80E0C",
"0 c #DA0E0C",
"q c #DB0E0E",
"w c #C81C0C",
"e c #CA1F0D",
"r c #DA120C",
"t c #DA130C",
"y c #CC1010",
"u c #E30D0D",
"i c #E40D0C",
"p c #E3140D",
"a c #CA210D",
"s c #DB210D",
"d c #DB240D",
"f c #E2220D",
"g c #E2230D",
"h c #964108",
"j c #9B420E",
"k c #9B460D",
"l c #9C540C",
"z c #A05211",
"x c #C8450C",
"c c #CB470F",
"v c #C8480B",
"b c #CA4A0D",
"n c #CB4E0E",
"m c #DA490C",
"M c #DB4A0E",
"N c #DF4A0C",
"B c #DA4C0C",
"V c #D2500B",
"C c #E14B0D",
"Z c #8C0D5A",
"A c #8F0C5E",
"S c #8C195B",
"D c #8F1B5E",
"F c #A4095B",
"G c #A60A5B",
"H c #A40A5C",
"J c #A5125B",
"K c #A5125C",
"L c #883F5C",
"P c #8F0977",
"I c #890978",
"U c #910977",
"Y c #920978",
"T c #8F2377",
"R c #974D5B",
"E c #9E545B",
"W c #B4C90A",
"Q c #B4CD09",
"! c #B6CD0B",
"~ c #B7CC0E",
"^ c #C9E00B",
"/ c #CCE30B",
"( c #870885",
") c #880982",
"_ c #AB5B93",
"` c #E5ECA9",
"' c #EBF2A9",
"] c #ECF5A9",
"[ c #F1F4E1",
/* pixels */
"                                                                ",
"                                                                ",
"  ************************************************************  ",
"  ************************************************************  ",
"  ************************************************************  ",
"  ************************************************************  ",
"  ************************************************************  ",
"  **************...*******************************************  ",
"  *************.....*************************************..*.X  ",
"  **********....***...**********..*******************..... . X  ",
"  ********.....*****. ..*******....*****************. ...*...*  ",
"  ..........*********.. ..***** **..***************...********  ",
"  .... ...*************.. ****..***..************.. .*********  ",
"  ****.******************  .*..*****..**............**********  ",
"  ***********************. .. .******.*..........*************  ",
"  ************************ ...*******X. **********************  ",
"  ************************ ***********. **********************  ",
"  ************************ ************..*********************  ",
"  ************************ ************* *********************  ",
"  ************************.************* *********************  ",
"  ************************X.************..********************  ",
"  *************************..***********  ********************  ",
"  ************************** **********.  ********************  ",
"  *************************. .********* .*********************  ",
"  *****#******************. . ********* .*********************  ",
"  *oo*#-**-**#***********. .*..********....*******************  ",
"  ****####o***o#*-=*****..o**. **********......***************  ",
"  **o*#**oo#=*o**&&-=*** .***..************......X.***********  ",
"  o=o*&#o=*#o*o%#=o-*=&..*&*. *****************..X..X..*******  ",
"  %%ooo***=*o.o-o#=.## o*=o* .*********************.X......***  ",
"  #ooo&o=o#.o#o=.oo.o-.*=**&.**************************... ..X  ",
"  ooo*o%=*oo= ***oo*o*#o*-*o=*****************************...X  ",
"  oo***oo&o-& oo%*oo#%*&&&#..=oo******************************  ",
"  =&oo&&+#-oo&&o*ooo=oo*#*o&#.********************************  ",
"  -*o%. +@#*=*o o&*%*o#o&&*#%..**&****************************  ",
"  %oo-%o+O+o%o#oo=#**#*o-o#*oo..X*****************************  ",
"  %o%oo&&+$o*#o.%*oo#%%****#oo*.=.X***************************  ",
"  &o*#&%##o&#o%#o&o#oo**%-o*#**#ooX.X*************************  ",
"  *#*oooo=&o&=&-oo=o*&*#o#-*-*%**&. &o************************  ",
"  o**&k6&k6mo*=*o&oo&o*o&**#oo&&...X*...X*********************  ",
"  o*okstq7eC*=**oo#o.o#oo%#**.&#o.o#&*..X.********************  ",
"  o#*gayu88N=*olcoo#.o#%#o&o&%..#o***o*** .*******************  ",
"  oo=pq5Fi2c#z36m*7o#o..&oo#o&*o*o&oo****. *******************  ",
"  &**pq2FUhC76q26=hv&#o#o##*o#*&&o=#o*****.*******************  ",
"  *o-nkzF)cCk#HA%o6m=oo#**&%%-*o*&o******* *******************  ",
"  %%-ozxFYkbH;HSlbx7*oo=***o*o*o******&*** .******************  ",
"  o*o%=hhAQ/Y:m6hxjo-%=o##ooo&oo*&&=******. ...X..************  ",
"  6xo6b,R~'/E%Coo**o*oo%*#**%**%o&%*o&****. ...X.........*****  ",
"  mc4wu1E/[]/WCcmco&**&#&o=#%=&***&******* .******.........***  ",
"  m425H%V^`_E/SvmN#*.=#oo--o-oo&-o&*=****..**************.....  ",
"  m04>)#4~~TLKYqoN=oo=%%o*.ooo&=X.&=&=***.*****************..   ",
"  B92I(-jo2J*UUicC..&o %#% oo#=#X&XoX...o.*******************.  ",
"  kv7Z<66oeu2FFiCC%%*#..%.o=o%o*&ooo**.  *********************  ",
"  *c6776oo6pguitnc*oo%#oo*o%oo-*o#**=** **********************  ",
"  *&*77-o*%6gu8joB*o#*ooooo=#***&*o*#o.#**********************  ",
"  =*-o%oo-=*as7#6b=o-**&#%%&o*oo#***** .o*********************  ",
"  o-%&%**&*# b7ok#oo*#*%o#*#-&#o=#**o*.***********************  ",
"  *%oo=*%o#oo%&oo-*&%**#&%o%&*%o*oo***#*o*********************  ",
"  o*%&**o--=*ooo*o%oo#oo*#*&=*%o#**o=  ***********************  ",
"  &#**=o#.oo##oo#*o*o%#**o%**-*&*&o**  ***********************  ",
"  -*-&*#o*#o#oo*o&=oo&***#--&*&#&o#**&X***********************  ",
"  %ooo#-ooooooo%o*=&%*-oooo=#==oo%#*&X************************  ",
"                                                                ",
"                                                                "
};
