/* XPM */
static char *_507d78e2da7452aabd670cb9530e67frNy8C5QayT69m8ZW[] = {
/* columns rows colors chars-per-pixel */
"64 64 12 1 ",
"  c black",
". c gray7",
"X c #161616",
"o c #1B1B1B",
"O c #002B0B",
"+ c gray14",
"@ c gray17",
"# c #0C6624",
"$ c #464646",
"% c #4E4E4E",
"& c gray34",
"* c #1EE656",
/* pixels */
"                                                                ",
"                                                                ",
"  XXXo+$$%&&&&&&&&&&&&&&&&&&&&&&&&&&&&&&&&&&&&&&&&&&&&&&&&&&&&  ",
"  oo@&&&&&&&&&&&&&&&&&&&&&&&&&&&&&&&&&&&&&&&&&&&&&&&&&&&&&&&&&  ",
"  ..X.Xo+$%&&&&&&&&&&&&&&&&&&&&&&&&&&&&&&&&&&&&&&&&&&&&&&&&&&&  ",
"  X..X.Xo@&&&&&&&&&&&&&&&&&&&&&&&&&&&&&&&&&&&&&&&&&&&&&&&&&&&&  ",
"  XXX.X.X@&&&&&&&&&&&&&&&&&&&&&&&&&&&&&&&&&&&&&&&&&&&&&&&&&&&&  ",
"  ...X.X&&&&&&&&&&&&&&&&&&&&&&&&&&&&&&&&&&&&&&&&&&&&&&&&&&&&&&  ",
"  ...XX$%&&&&&&&&&&&&&&&&&&&&&&&&&&&&&&&&&&&&&&&&&&&&&&&&&&&&&  ",
"  ...X+&&&&&&&&&&&&&&&&&&&&&&&&&&&&&&&&&&&&&&&&&&&&&&&&&&&&&&&  ",
"  ......X@&&&&&&&&&&&&&&&&&&&&&&&&&&&&&&&&&&&&&&&&&&&&&&&&&&&&  ",
"  &&Xo&&&&&&&&&&&&&&&&&&&&&&&&&&&&&&&&&&&&&&&&&&&&&&&&&&&&oooo  ",
"  &&ooo&&&&&&&&&&&&&&&&&&&&&&&&&&&&&&&&&&&&&&&oooooooo@ooooooo  ",
"  &&&&ooo@&&&&&&&&&&&&&&&&&&&&&&&&&&&&&&&&&&oooooooooo@ooo&&&&  ",
"  &&&&ooo@o&&&&&&&&&&&ooooooooooo&&&&&&&&&o.Xo&&&&&&&&&&&&&&&&  ",
"  &oooo&&&oooo&&&&&&oooooooooooo.oooooooooX.@&&&&&&&&&&&&&&&&&  ",
"  oooo&&&&&ooooooo&o.o&&&&&&&&&&ooooooooooo&&&&&&&&&&&&&&&&&&&  ",
"  o&&&&&&&&&&&oooXo..o&&&&&&&&&&&&&&&&&&&&&&&&&&&&&&&&&&&&&&&&  ",
"  &&&&&&&&&&&&&&&ooo&X&&&&&&&&&&&&&&&&&&&&&&&&&&&&&&&&&&&&&&&&  ",
"  &&&&&&&&&&&&&&&&&&&@o&&&&&&&&&&&&&&&&&&&&&&&&&&&&&&&&&&&&&&&  ",
"  &&&&&&&&&&&&&&&&&&&&oo@&&&&&&&&&&&&&&&&&&&&&&&&&&&&&&&&&&&&&  ",
"  &&&&&&&&&&&&&&&&&&&&&oX@o&&&&&&&&&&&&&&&&&&&&&&&&&&&&&&&&&&&  ",
"  &&&&&&&&&&&&&&&&&&&&&o.@ooo&&&&&&&&&&&&&&ooooo&&&&&&&&&&&&&&  ",
"  &&&&&&&&&&&&&&&&&&&oooo&&ooooo@oo@oo@ooooooooXo&&&&&&&&&&&&&  ",
"  &&&&&&&&&&&&&&&&&&o.o&&&&&&ooo@oo@oo@oooo&&&&oooo&&&&&&&&ooo  ",
"  oX..Xooo@o.Xoooooooo&&&&&&&&&&&&o@&&&&&&&&&&&&&oooooo&oooooo  ",
"  ..X..ooo@o...ooooo&&&&&&&&&&&&&oo@&&&&&&&&&&&&&&&ooooo.oo&&&  ",
"  X&&&&&&&&&&oooo&&&&&&&&&&&&&&&oo&&&&&&&&&&&&&&&&&&&&&o.&&&&&  ",
"  @&&&&&&&&&&&&ooo@oo&&&&&&&&&&o.&&&&&&&&&&&&&&&&&&&&&&&&&&&&&  ",
"  &&&&&&&&&&&&&&&o@o.o@oo&&&&&oXo&&&&&&&&&&&&&&&&&&&&&&&&&&&&&  ",
"  &&&&&&&&&&&&&&&&&&Xo@ooooooo.o&&&&&&&&&&&&&&&&&&&&&&&&&&&&&&  ",
"  &&&&&&&&&&&&&&&&&&.&&&&oooooo&&&&&&&&&&&&&&&&&&&&&&&&&&&&&&&  ",
"  &&&&&&&&&&&&&&&&&&.o&&&&&&&&&&&&&&&&&&&&&&&&&&&&&&&&&&&&&&&&  ",
"  &&&&&&&&&&&&&&&&&&o.&&&&&&&&&&&&&&&&&&&&&&&&&&&&&&&&&&&&&&&&  ",
"  &&&&&&&&&&&&&&&&&&&ooo&&&&&&&&&&&&&&&&&&&&&&&&&&&&&&&&&&&&&&  ",
"  &&&&&&&&&&&&&&&&&&&&o.o&&&&&&&&&&&&&&&&&&&&&&&&&&&&&&&&&&&&&  ",
"  &&&&&&&&&&&&&&&&&&&&&oooo&&&&&&&&&&&&&&&&&&&&&&&&&&&&&&&&&&&  ",
"  &&&&&&&&&&&&&&&&&&&&&&&oXoo&&&&&&&&&&&&&&&&&&&&&&&&&&&&&&&&&  ",
"  &&&&&&&&&&&&&&&&&&&&&&&&oo.ooooo&&&&&&&&&&&&&&&&&&&&&&&&&&&&  ",
"  &&&&&&&&&&&&&&&&&&&&&&&&&&ooooo.oo&&&&&&&&&&&&&&&&&&&&&&&&&&  ",
"  &&&&&&&&&&&&&&&&&&&&&&&&&&&&&&&oo.o&&&&&&&&&&&&&&&&&&&&&&&&&  ",
"  &&&&&&&&&&&&&&&&&&&&&&&&&&&&&&&oooooo&&&&&&&&&&&&&&&&&&&&&&&  ",
"  &&&&&&&&&&&&&&&&&&&&&&&&&&&&&&&Xo&&o.o&&&&&&&&&&&&&&&&&&&ooo  ",
"  &&&&&&&&&&&&&&&&&&&&&&&&&&&&&&oo&&&&o.ooooo&&&&&&&&&&&oooooo  ",
"  &&&&&&&&&&&&&&&&&&&&&&&&&&&&&oo&&&&&&oooooooo&&&&&ooooooo&&&  ",
"  &&&&&&&&&&&&&&&&&&&&&&&&&&&@oo&&&&&&&&&&&&&oooo&oo.ooo&&&&&&  ",
"  &&&&&&&&&&&&&&&&&&&&&&&&&&o@o&&&&&&&&&&&&&&&&o.oXoo&&&&&&&&&  ",
"  oo@ooooo&&&&&&&&&&&&&&&&&@o&&&&&&&&&&&&&&&&&&&oooo&&&&&&&&&&  ",
"  oo@ooooo@o@o@o@o@oo&&&&&@@&&&&&&&&&&&&&&&&&&&&&&&.o&&&&&&&&&  ",
"  &&&&&&&&@o@o@o@o@oo@oooX@&&&&&&&&&&&&&&&&&&&&&&&&o.o&&&&&&&&  ",
"  &&&&&&&&&&&&&&&&&&&@oo..&&&&&&&&&&&&&&&&&&&&&&&&&&ooo&&&&&&&  ",
"  &&&&&&&&&&&&&&&&&&&&&oo&&&&&&&&&&&&&&&&&&&&&&&&&&&&&oo&&&&&&  ",
"  &&&&&&&&&&&&&&&&&&&&&.&&&&&&&&&&&&&&&&&&&&&&&&&&&&&&&ooo&&&&  ",
"  &&&&&&&&&&&&&&&&&&&ooo&&&&&&&&&&&&&&&&&&&&&&&&&&&&&&&&oooo&&  ",
"  &&&&&&&&&&&&&&&&&&ooo&&&&&&&&&&&&&&&&&&&&&&&&&&&&&&&OO&&oooo  ",
"  #&&&&&OO&&&&&&&&&oo&&&&&&&&&&&&O&O&&&&&&*&&&&&&&O&&OOOO###X#  ",
"  O&O&OOOO**O&&&##oo&&&&&&#&#&&&OO&&OO*&******&##OO#OOOOOOO&##  ",
"  OOOOOO&****O*#o###&&&&&&#&&&&O&OOOO**O&*##**#&##O#OOO#OOOO##  ",
"  &OO&OO***OO*O####&##&&#&&&##&OOO&O*O*#****#**&&#&OOO#OOOOO##  ",
"  O&OOO*O**O**o**#&&##&&#####OOOO&OO*O****&*##*#O#OOOOOOOOOO##  ",
"  OO#OOO****O#****&#&##&######OOOOO*&*#*OO&*****O#OO##OO##O#&#  ",
"  OOO*OO****##****#&######&###OO#O#*#*OO****#*#*OO#OOOOOOOOOO#  ",
"                                                                ",
"                                                                "
};
