/* XPM */
static char *_fa2ee31a317488ab39c56b02fb0039foOZC47RY8WS3zstn[] = {
/* columns rows colors chars-per-pixel */
"64 64 11 1 ",
"  c black",
". c #131326",
"X c gray16",
"o c #373759",
"O c #5F5F7B",
"+ c #6D6DBF",
"@ c #7C7CFF",
"# c #828299",
"$ c gray64",
"% c #E5E5CE",
"& c #FFFFF2",
/* pixels */
"                                                                ",
"                                                                ",
"  XXXXXXXXXXXXXXXXXXXXXXXXXXXXXXXXXXXXXX   XXXXXXXXXXXXXXXXXXX  ",
"  XXXXXXXXXXXXXXXXXXXXXXXXXXXXXXXXXXXXXX   XXXXXXXXXXXXXXXXXXX  ",
"  XXXXXXXXXXXXXXXXXXXXXXXXXXXXXXXXXXX     XXXXXXXXXXXXXXXXXXXX  ",
"  XXXXXXXXXXXXXXXXXXXXXXXXXXXXXXXX       XXXXXXXXXXXXXXXXXXXXX  ",
"  XXXXXXXXXXXXXXXXXXXXXXXXXXXXXX       XXXXXXXXXXXXXXXXXXXXXXX  ",
"  XXXXXXXXXXXXXXXXXXXXXXXXXXXXX     XXXXXXXXXXXXXXXXXXXXXXXXXX  ",
"  XXXXXXXXXXXXXXXXXXXXXXXXXXXX   XXXXXXXXXXXXXXXXXXXXXXXXXXXXX  ",
"    XXXXXXXXXXXXXXXXXXXXXXXXXX  XXXXXXXXXXXXXXXXXXXXXXXXXXXXXX  ",
"     XXXXXXXXXXXXXXXXXXXXXXX    XXXXXXXXXXXXXXXXXXXXXXXXXXXX    ",
"        XXXXXXXXXXXXXXXXXXX    XXXXXXXXXXXXXXXXXXXXXXXXXXXX     ",
"  X       XXXXXXXXXXXXX  XX  XXXXXXXXXXXXXXXXXXXXXXXXXXXXX      ",
"  XXXXX    XXXXXXXXX         XXXXXXXXXXXXXXXXXXXXXXXXXXXX    X  ",
"  XXXXXXX      X            XXXXXXXXXXXXXXXXXXXXXXXXXXX     XX  ",
"  XXXXXXXX           XXX    XXXXXXXXXXXXXXXXXXXXXXXXXX    XXXX  ",
"  XXXXXXXXXXXX   XXXXXXXXX    XXXXXXXXXXXXXXXXXXXXXX     XXXXX  ",
"  XXXXXXXXXXXXXXXXXXXXXXXXX     XXXXXXXXXXXXXXXXXXX    XXXXXXX  ",
"  XXXXXXXXXXXXXXXXXXXXXXXXXXX        XXXXXXXXXXXXX    XXXXXXXX  ",
"  XXXXXXXXXXXXXXXXXXXXXXXXXXXXX                XX   XXXXXXXXXX  ",
"  XXXXXXXXXXXXXXXXXXXXXXXXXXXXXXXX                              ",
"  XXXXXXXXXXXXXXXXXXXXXXXXXXXXXXXX  XXXXXXXXXX                  ",
"  XXXXXXXXXXXXXXXXXXXXXXXXXXXXXXX   XXXXXXXXXXXXXXXXXXXXXXXXXX  ",
"  XXXXXXXXXXXXXXXXXXXXXXXXXXXXXX   XXXXXXXXXXXXXXXXXXXXXXXXXXX  ",
"  XXXXXXXXXXXXXXXXXXXXXXXXXXXXX   XXXXXXXXXXXXXXXXXXXXXXXXXXXX  ",
"  XXXXXXXXXXXXXXXXXXXXXXXXXXXXX  XXXXXXXXXXXXXXXXXXXXXXXXXXXXX  ",
"  XXXXXXXXXXXXXXXXXXXXXXXXXXXXX  XXXXXXXXXXXXXXXXXXXXXXXXXXXXX  ",
"  XXXXXXXXXXXXXXXXXXXXXXXXXXXXX  XXXXXXXXXXXXXXXXXXXXXXXXXXXXX  ",
"  XXXXXXXXXXXXXXXXXXXXXXXXXXXXX   XXXXXXXXXXXXXXXXXXXXXXXXXXXX  ",
"  XXXXXX              XXXXXXXXX   XXXXXXXXXXXXXXXXXXXXXXXXXXXX  ",
"  XXXX                    XXXXX   XXXXXXXXXXXXXXXXXXXXXXXXXXXX  ",
"  XX     XXXXXXXXXXXX        X   XXXXXXXXXXXXXXXXXXXXXXXXXXXXX  ",
"       XXXXXXXXXXXXXXXXXX       XXXXXXXXXXXXXXXXXXXXXXXXXXXXXX  ",
"      XXXXXXXXXXXXXXXXXXXXX    XXXXXXXXXXXXXXXXXXXXXXXXXXXXXXX  ",
"  XXXXXXXXXXXXXXXXXXXXXXXX   XXXXXXXXXXXXXXXXXXXXXXXXXXXXXXXXX  ",
"  XXXXXXXXXXXXXXXXXXXXXX    XXXXXXXXXXXXXXXXXXXXXXXXXXXXXXXXXX  ",
"  XXXXXXXXXXXXXXXXXXXXX    XXXXXXXXXXXXXXXXXXXXXXXXXXXXXXXXXXX  ",
"  XXXXXXXXXXXXXXXXXXXX   XXXXXXXXXXXXXXXXXX..%&&&&&..XXXXXXXXX  ",
"  XXXXXXXXXXXXXXXXXXXX   XXXXXXXXXXXXXXX.%%%%&&&&&&&&&&.XXXXXX  ",
"  XXXXXXXXXXXXXXXXXXXX     XXXXXXXXXXXX.%%%%%&&&&&&&&&&&.XXXXX  ",
"  XXXXXXXXXXXXXXXXXXXX      XXXXXXXXXX$$%%%%%&&&&&&&&&&%%%XXXX  ",
"  XXXXXXXXXXXXXXXXXXXXX  X   XXXXXXXX$$$$%%%%%&&&&&&&&%%%%XXXX  ",
"  XXXXXXXXXXXXXXXXXXXXX  XX    XXXXX.OOOO$%%%%%%%&&&%%%%%%.XXX  ",
"  XXXXXXXXXXXXXXXXXXXXX  XXX        .OOooOO&&&&&&&&%&&&&%%.XXX  ",
"  XXXXXXXXXXXXXXXXXXXX   XXXXX      OOooooO$$.....%%%$$$$%X  X  ",
"  XXXXXXXXXXXXXXXXXXXX  XXXXXXXXX   OOooooo%......%%.....$X  X  ",
"  XXXXXXXXXXXXXXXXXXX   XXXXXXXXXXXXOOoooo$o......%%.......     ",
"  XXXXXXXXXXXXXXXXXXX  XXXXXXXXXXXXX+Oooo$%ooo...o.$%o..oo%X    ",
"  XXXXXXXXXXXXXXXXXX   XXXXXXXXXXXXX@Oooo$%&oooo$%...oooo&%X    ",
"  XXXXXXXXXXXXXXXXX   XXXXXXXXXXXXXX.oOO$$%%%%%%$o..o%%%%%%XXX  ",
"  XXXXXXXXXXXXXXXX   XXXXXXXXXXXXXXX.OOOOO&&&&%%%$$$o%%&&&&XXX  ",
"  XXXXXXXXXXXXXXXX  XXXXXXXXXXXXXXXXX+OOOoo$%%%%%&$&$&%%&&.XXX  ",
"  XXXXXXXXXXXXXXX   XXXXXXXXXXXXXXXXX.+OooOooO%%%%%%%%%$$.XXXX  ",
"  XXXXXXXXXXXXXX   XXXXXXXXXXXXXXXXXXX@+.OOooO#%&&&&&&%$OXXXXX  ",
"  XXXXXXXXXXXXXX  XXXXXXXXXXXXXXXXXXXX.@OOOooo#OO$$O#$#OoXXXXX  ",
"  XXXXXXXXXXXXX   XXXXXXXXXXXXXXXXXXXXXXOOOooo##O$$O$$#O.XXXXX  ",
"  XXXXXXXXXXXXX  XXXXXXXXXXXXXXXXXXXXXXX++$$$oo%$$OOO$%O.XXXXX  ",
"  XXXXXXXXXXXXX  XXXXXXXXXXXXXXXXXXXXXXX.+$$$$$%%%$$%%%%.XXXXX  ",
"  XXXXXXXXXXXXX  XXXXXXXXXXXXXXXXXXXXXXXXX@+$$$%%%%%%%%%.XXXXX  ",
"  XXXXXXXXXXXXX  XXXXXXXXXXXXXXXXXXXXXXXXXXX.@+O$%%%%%%.XXXXXX  ",
"  XXXXXXXXXXXX   XXXXXXXXXXXXXXXXXXXXXXXXXXXXX........XXXXXXXX  ",
"  XXXXXXXXXXXX  XXXXXXXXXXXXXXXXXXXXXXXXXXXXXXXXXXXXXXXXXXXXXX  ",
"                                                                ",
"                                                                "
};
