/* XPM */
static char *_4e4bb60f3824ece8730d38638ee6fe79lGmPP3sxv22Bk3E[] = {
/* columns rows colors chars-per-pixel */
"64 64 75 1 ",
"  c black",
". c #010100",
"X c #040300",
"o c #0A0700",
"O c #1D1500",
"+ c #1F1601",
"@ c #2B2A2B",
"# c #343434",
"$ c #353535",
"% c gray21",
"& c #3C3C3C",
"* c #523B00",
"= c #4C4B4C",
"- c gray38",
"; c gray40",
": c #686868",
"> c #6D6C6D",
", c #7A787A",
"< c #B00800",
"1 c #E50707",
"2 c #E60808",
"3 c #EE0F0F",
"4 c #F50100",
"5 c #FF0100",
"6 c #FF0400",
"7 c #FB0B00",
"8 c #FE0B00",
"9 c #FD0C02",
"0 c #F90D05",
"q c #FB1400",
"w c #FF1600",
"e c #FE3D01",
"r c #FD3C02",
"t c #D02A2B",
"y c #B04400",
"u c #B74E12",
"i c #A57000",
"p c #A97200",
"a c #B07800",
"s c #E35400",
"d c #E65908",
"f c #F55A00",
"g c #FB5C00",
"h c #FC5C01",
"j c #F95E05",
"k c #EE600F",
"l c #FF6000",
"z c #FB6500",
"x c #FD6602",
"c c #EE720F",
"v c #F97705",
"b c #FF7900",
"n c #FD7802",
"m c #D0662B",
"M c #BA8515",
"N c #C28500",
"B c #E39B00",
"V c #E69F07",
"C c #E99F00",
"Z c #E69F08",
"A c #E8A10A",
"S c #EEA70F",
"D c #FBAB00",
"F c #FCAC00",
"G c #FCAC01",
"H c #FDAD02",
"J c #F253F2",
"K c #FFA5A5",
"L c #FFA9A5",
"P c #FFADA5",
"I c #FFC6A5",
"U c #FFC9A5",
"Y c #F6C4A8",
"T c #FFEBDF",
"R c #E6E6E6",
/* pixels */
"                                                                ",
"                                                                ",
"  ,,,,,,,,,,,,,,,,,,,,,,,,,,&,,,,,,,,,,,,,,,,,,,,,,,,,,,,,,,,,  ",
"  ,,,,,,,,,,,,,,,,,,,,,,,,,,&&,,,,,,,,,,,,,,,,,,,,,,,,,,,,,,,,  ",
"  ,,,,,,,,,,,,,,,,,,,,,,,,,,,&&&,,,,,,,,,,,,,,,,,,,,,,,,,,,,,,  ",
"  ,,,,,,,,,,,,,,,,,,,,,,,,,,,,&&&,,,SSSS,,,,,,,,,,,,,,,,,,,,,,  ",
"  ,,,,,,,,,,,,,,,,,,,,,,,,,,,,,,ZZVAHSSH,,,,,,,,,,,,,,,,,,,,,,  ",
"  ,,,,,,,,,,,,,,,,,,,,,,,,,,,,SSSZDAA&AH,,,,,,,,,,,,,,,,,,,,,,  ",
"  ,,,,,,,,,,,,,,,,,,,,,,,,,,,,HS,,Z&#AGV,,,,,,,,,,,,,,,,,,,,,,  ",
"  ,,,,,,,,,,,,,,,,,,,,,,,,S,SHSc,,uM&HG&,,,,,,,,,,,,,,,,,,,,,,  ",
"  ,,,,,,,,,,,,,,,,,,,,,,,SHSHH,l,,lr,xxv,,,,,,,,,,,,,,,,,,,,,,  ",
"  ,,,,,,,,,,,,,,,,,,,,,,,wrHHSSl,k96khkvS,,SS,,,,,,,,,,,,,,,,,  ",
"  ,,,,,,,,,,,,,,,,,,,,,,S5tSSSHhkh59kk,,HSSHH,,,,,,,,,,,,,,,,,  ",
"  ,,,,,,,,,,,,,,,,,,,,,,H6,m,HShh95Y,0txbSSGS,,,,,,,,,,,,,,,,,  ",
"  ,&&&&&&&,,,,,,,,,,,,,,H5,j,H,IlK9L9Ktlb,SS,,,,,,,,,,,,,,,,,,  ",
"  =&&&&&&&&&,,,,,,,,,,,,H2=h&GdI9P159PShmSS,,,,,,,,,,,,,,,,,,,  ",
"  =,,,,,,,&&&&,,,,,,,&&&AA=gdFh8KUK9AxhhmH,,,,,,,,,,,&,,,,,&=,  ",
"  ,,,,,,,,,,&&&&,&&&&&&&&SSxISL5LUKhHhhk,H,,,,,,&&&&&#&&&&&&=,  ",
"  ,,,,,,,,,,,,&#&#&&&,,,,,HHT,K3hd6kHhh&&H&&&&&&&&&&&&&&&&&,,,  ",
"  ,,,,,,,,,,,,,&&&,,,,,,,SHxU78OhO5OHhh&&H&&&&&&,,,,,,,,,,,,,,  ",
"  ,,,,,,,,,,,,,,,,,,,,,,,SHhB5s+hx5BAhk,SH,,,,,,,,,,,,,,,,,,,,  ",
"  ,,,,,,,,,,,,,,,,,,,,,,,,Sxs5+shhqzhh,SHS,,,,,,,,,,,,,,,,,,,,  ",
"  ,,,,,,,,,,,,,,,,,,,,,,,,SHf5+hhhzshdSHS,,,,,,,,,,,,,,,,,,,,,  ",
"  ,,,,,,,,,,,,,,,,,,,,,,,,HHy4+shhssh&DS,,,,,,,,>>,,,,,,,,,,,,  ",
"  ,,,,,,,,,,,,,,,,,,,,,,,,SHB<O+ss+sjSH&,,,,,,,,>>,,,,,,,,,,,,  ",
"  ,,,,,,,,,,,,,,,,,,,,,,,,,SDaO+OBBBSHS&&,,,,,,,>>,,,,,,,,,,,,  ",
"  ,,,,,,,,,,,,,,,,,,,,,,,,,,SNpCAHASSS,,&&,,,,,,>>,,,,,,,,,,,,  ",
"  ,,,,,,,,,,,,,,,,,,,,,,,,,,,*iCAA*,,,,,,&&&,,,,>>,,,,,,,,,,,,  ",
"  ,,,,,,,,,,,,,,,,,,,,,,,,,,,*X****,,,,,,,&#&=&&&,,,,,,,,,,,,,  ",
"  ,,,,,,,,,,,,,,,,,,,,,,,,,,,*o****,,,,,,,,&&=&&#&&&&&&&&&&&&=  ",
"  ,,,,,,,,,,,,,,,,,,,,,,,,,,,*OO***,,,,,,,,&&&,,&&&&&&&&&&&&&=  ",
"  ,,,,,,,,,,,,,,,,,,,,,,,,,,,**O***,,,,,,&&#&&,,,,,,,,,,,,,,,,  ",
"  ,,,,,,,,,,,,,,,,,,,,,,,,,,,**o***,,&&&&&&&,,,,,,,,,,,,,,,,,,  ",
"  ,,,,,,,,,,,,,,,,,,,,,,,,,,&** ***&&&&&&,,,,,,,,,,,,,,,,,,,,, X",
"  ,,,,,,,,,,,,,,,,,,,,,,,,,&#** o**&&,,,,,,,,,,,,,,,,,,,,,,,,,  ",
"  ,,,,,,,,,,,,,,,,,,,,,,,,&#&**o **,,,,,,,,,,,,,,,,,,,,,,,,,,, X",
"  ,,,,,&&&&&&&,,,,,,,,,,,&#&,*** **,,,,,,,,,,,,,,,,,,,,,,,,,,, X",
"  =&&&&&&&&&&&&&&&&&&&&&&&&,,***oo*,,,,,,,,,,,,,,,,,,,,,,,,,,,  ",
"  =&&&&,,,,,,,&&&&&#&&&&&,,,,**** *,,,,,,,,,,,,,,,,,,,,,,,,,,,X ",
"  ,,,,,,,,,,,,,,,,,#,,,,,,,,,**** *,,,,,,,,,,,,,,,,,,,,,,,,,,,X ",
"  ,,,,,,,,,,,,,,,,,&&,,,,,,,,****Xo,,,,,,,,,,,,,,,,,,,,,,,,,&=  ",
"  ,,,,,,,,,,,,,,,,,,#&,,,,,,,****o ,,,,,,,,,,,,,,,,,,,,,,,,&#=  ",
"  ,,,,,,,,,,,,,,,,,,&#,,,,,,,*****+,,,,,,,,:;:,,,,,,,,,,,&&&&,  ",
"  ,,,,,,,,,,,,,,,,,,,#,,,,,,,****O+,,,,,,,,:;;;;:,,,,,&&&#&,,,  ",
"  ,,,,,,,,,,,,,,,,,,,#&,,,,,,OO*OOo,,,,,,,,:;;;;;,,,&&#&&&,,,,  ",
"  ,,,,,,,,,,,,,,,,,,,&#,,,,,,OOOO*O,,,,,,,,:;;;;;>,,#&&,,,,,,,  ",
"  ,,,,,          ,,,,,#,,,,,,,,@,,,,,,,,,,,:;;;;;>,,#,,,,,,,,,  ",
"  ,,,,,          ,,,,,#,,,,,,,,,,,,,,,,,,,,,,:;;;>,,#&,,,,,,,,  ",
"  ,,,,,          ,,,,,&&,,,,,,,,,,,,,,,,,,,,,,,:;>,,&&&&,,,,,,  ",
"  ,,,,,          ,,,,,,#&&&=,,,,,,,,,,,,,,,,,,,,>>,,,,&#&&,,,,  ",
"  ,,,,            ,,,,,#&&&=&&=&=&=&,,,,,,,,,,,,,,,,,,,&&#&,,,  ",
"  ,,,  ---    ---  ,,,,#,,,,&&=&=&=&&&&,,,,,,,,,,,,,,,,,,&#,,,  ",
"  ,,, -----  ----- ,,,,&&,,,,,,,,,,,&&&&&&,,,,,,,,,,,,,,,,#,,,  ",
"  ,   --J--  --J--   ,,,#,,,,,,,,,,,,,,&&&&&&,,,,,,,,,,,,,#,,,  ",
"  ,   ------------   ,,,#,,,,,,,,,,,,,,,,,&&&&&,,,,,,,,,,,&&,,  ",
"  ,    ----------    ,,,#,,,,,,,,,,,,,,,,,,,,&&&&,,,,,,,,,,#,,  ",
"  ,      -R--R-      ,,,#,,,,,,,,,,,,,,,,,,,,,,&#&,,,,,,,,,#,,  ",
"         ------      ,,,#&,,,,,,,,,,,,,,,,,,,,,,&#&,,,,,,,,#,,  ",
"         ---J--       ,,#&,,,,,,,,,,,,,,,,,,,,,,,&#&,,,,,,,#,,  ",
"         ------       ,,#,,,,,,,,,,,,,,,,,,,,,,,,,&#&&&&&&&#,,  ",
"                      ,,%,,,,,,,,,,,,,,,,,,,,,,,,,,&&#&&&&&&,,  ",
"                      ,,=,,,,,,,,,,,,,,,,,,,,,,,,,,,,&,,,,,,,,  ",
"                                                                ",
"                                                                "
};
